<?xml version="1.0" encoding="UTF-8"?>
<svg xmlns="http://www.w3.org/2000/svg" viewBox="0 0 120 120" width="120" height="120">
  <defs>
    <linearGradient id="bg" x1="0%" y1="0%" x2="100%" y2="100%">
      <stop offset="0%" stop-color="#0f1a3d"/>
      <stop offset="50%" stop-color="#1a3070"/>
      <stop offset="100%" stop-color="#06040c"/>
    </linearGradient>
    <linearGradient id="gold" x1="0%" y1="0%" x2="100%" y2="0%">
      <stop offset="0%" stop-color="#E8C77E"/>
      <stop offset="100%" stop-color="#C9A24A"/>
    </linearGradient>
    <radialGradient id="sil" cx="50%" cy="30%" r="70%">
      <stop offset="0%" stop-color="#f59e0b" stop-opacity="0.65"/>
      <stop offset="55%" stop-color="#0f1a3d" stop-opacity="0.9"/>
      <stop offset="100%" stop-color="#06040c" stop-opacity="1"/>
    </radialGradient>
    <radialGradient id="glow" cx="50%" cy="22%" r="55%">
      <stop offset="0%" stop-color="#e8c77e" stop-opacity="0.35"/>
      <stop offset="100%" stop-color="transparent"/>
    </radialGradient>
    <linearGradient id="face" x1="0%" y1="0%" x2="0%" y2="100%">
      <stop offset="0%" stop-color="#f59e0b" stop-opacity="0.5"/>
      <stop offset="100%" stop-color="#0a0812" stop-opacity="0.85"/>
    </linearGradient>
  </defs>
  <rect width="100%" height="100%" fill="url(#bg)"/>
  <rect width="100%" height="100%" fill="url(#glow)"/>
  
  <circle cx="200" cy="200" r="95" fill="none" stroke="url(#gold)" stroke-width="0.8" opacity="0.35"/>
  <circle cx="200" cy="200" r="72" fill="none" stroke="url(#gold)" stroke-width="0.6" opacity="0.25"/>
  <circle cx="200" cy="200" r="48" fill="none" stroke="#f59e0b" stroke-width="0.5" opacity="0.4"/>
  <g fill="#f59e0b" opacity="0.7">
    <circle cx="200" cy="118" r="2.5"/><circle cx="268" cy="168" r="2"/><circle cx="132" cy="168" r="2"/>
    <circle cx="248" cy="248" r="1.8"/><circle cx="152" cy="248" r="1.8"/>
  </g>
  <ellipse cx="200" cy="96" rx="38" ry="22" fill="url(#sil)" opacity="0.75"/>
  <ellipse cx="200" cy="58" rx="22" ry="26" fill="url(#face)" opacity="0.92"/>
  
  
  <rect x="6" y="6" width="108" height="108" fill="none" stroke="url(#gold)" stroke-width="2" opacity="0.5" rx="6"/>
  <rect x="12" y="12" width="96" height="96" fill="none" stroke="url(#gold)" stroke-width="0.8" opacity="0.2" rx="4"/>
</svg>