<svg xmlns="http://www.w3.org/2000/svg" viewBox="0 0 240 240" fill="none">
  <circle cx="120" cy="120" r="118" stroke="#E8C77E" stroke-width="0.6" opacity="0.25"/>
  <circle cx="120" cy="120" r="92" stroke="#B794F6" stroke-width="0.5" stroke-dasharray="4 7" opacity="0.35"/>
  <path d="M148 68c-28 8-48 32-48 58 0 36 29 65 65 65 8 0 16-1 23-4-38-6-66-38-66-78 0-22 9-42 26-41z" fill="#E8C77E" fill-opacity="0.12" stroke="#E8C77E" stroke-width="1.2" stroke-linejoin="round"/>
  <path d="M58 42l4 8M72 34l2 10M46 58l8 4" stroke="#E8C77E" stroke-width="1" stroke-linecap="round" opacity="0.55"/>
  <path d="M182 178l6 3M194 164l3 7M170 188l7 2" stroke="#C4B5FD" stroke-width="0.9" stroke-linecap="round" opacity="0.5"/>
  <circle cx="68" cy="92" r="1.8" fill="#E8C77E" opacity="0.7"/>
  <circle cx="188" cy="56" r="1.4" fill="#E8C77E" opacity="0.55"/>
  <circle cx="200" cy="132" r="1.2" fill="#C4B5FD" opacity="0.6"/>
  <path d="M36 156c12-18 28-24 44-18M196 92c-10 14-24 20-38 16" stroke="#E8C77E" stroke-width="0.8" opacity="0.35" stroke-linecap="round"/>
</svg>
